<?xml version="1.0" encoding="UTF-8"?>
<svg id="Layer_1" data-name="Layer 1" xmlns="http://www.w3.org/2000/svg" viewBox="0 0 650 650">
  <defs>
    <style>
      .cls-1 {
        fill: #231f20;
      }

      .cls-1, .cls-2 {
        stroke-width: 0px;
      }

      .cls-2 {
        fill: #fff;
      }
    </style>
  </defs>
  <circle class="cls-1" cx="325" cy="325" r="325"/>
  <path class="cls-2" d="M153.09,319.08c8.6-7.69,18.6-11.03,28.29-14.84,29.55-11.63,59.95-20.51,90.93-27.46,9.99-2.24,20.11-3.63,30.16-5.51,1.86-.35,3.09.83,4.54,1.63,9.07,4.99,18.54,6.93,28.7,3.74,10.21-3.21,17.7-11.13,18.37-19.53.86-10.79-4.79-20.2-15.45-24.87-12.61-5.53-28.88-4.09-38.5,7.83-.42.52-1.18.95-1.27,1.51-1.44,8.71-8.77,8.34-14.88,9.49-39.87,7.53-78.68,18.72-116.15,34.26-12.23,5.07-24.35,10.8-33.67,20.82-5.68,6.11-9.89,12.6-9.13,21.67.65,7.61.31,15.32.09,22.98-.11,3.75.93,6.38,4.38,8.12,3.67,1.85,6.18,4.91,8.29,8.41,2.79,4.64,3.84,9.85.74,14.1-4.81,6.6-2.51,13.12-1.79,19.92.78,7.4,2.6,14.66,2.5,22.19-.08,6.03-2.55,10.55-7.39,13.84-13.04,8.85-30.29,4.39-35.01-8.97-1.61-4.56-.95-9.29-.53-13.83.73-8.04,2.23-16.02,3.52-24,.34-2.1.08-3.64-1.38-5.44-6.63-8.17-3.9-21.39,5.8-25.73,5.67-2.54,7.26-5.86,7.08-11.79-.42-13.98-.29-27.99.03-41.97.09-4.19-1.46-6.43-4.95-8.18-6.09-3.05-12.04-6.37-18.07-9.54-4.85-2.55-8.36-5.91-8.22-11.94.14-5.98,4.21-8.63,8.84-10.88,25.24-12.27,50.54-24.42,75.71-36.83,42.74-21.08,85.39-42.33,128.09-63.49,5.65-2.8,11.39-5.41,17.07-8.15,10.04-4.84,19.89-4.94,30.05.08,35.27,17.44,70.68,34.63,106.01,51.94,38.18,18.7,76.34,37.44,114.5,56.17.89.44,1.76.93,2.64,1.38,4.15,2.12,7.07,5.42,6.83,10.14-.24,4.75-3.12,8.25-7.47,10.42-16.78,8.39-33.57,16.75-50.3,25.24-45.45,23.07-90.86,46.25-136.33,69.3-14.07,7.13-28.38,13.8-42.38,21.08-6.21,3.23-11.7,3.17-17.87-.02-29.36-15.17-58.85-30.1-88.29-45.13-22.19-11.33-44.36-22.69-66.53-34.05-2.34-1.2-4.64-2.48-7.63-4.09Z"/>
  <path class="cls-2" d="M176.92,359.91c20.09,10.3,39.35,19.89,58.35,29.99,23.72,12.61,47.84,24.48,71.64,36.96,11.66,6.11,22.75,5.89,34.46-.08,43.63-22.26,87.42-44.19,131.15-66.23.27-.14.62-.15,1.38-.31,3.69,29.86-3.22,56.68-22.79,79.58-22.35,26.16-51.39,41.34-84.51,49.28-16.69,4-33.65,6.03-50.76,4.91-38.01-2.47-72.72-14.49-102.34-38.81-15.71-12.9-27.68-28.95-33.49-48.97-4.38-15.07-4.67-30.32-3.09-46.31Z"/>
  <path class="cls-2" d="M325,580.09c-18.8,0-33.19-13.64-32.82-31.84.37-18.44,12.05-32.15,32.84-32.13,19.34.02,32.92,13.78,32.79,31.97-.13,17.06-11.56,31.6-32.81,32Z"/>
  <path class="cls-2" d="M135.13,166.89c.47-19.45,14.03-32.6,31.61-32.49,20.38.13,32.92,12.98,33,33.3.07,17.84-12.01,30.74-32.56,30.95-18.32.19-31.22-12.83-32.05-31.76Z"/>
  <path class="cls-2" d="M449.73,166.62c.14-18.38,14.44-32.91,32.52-32.31,19.68.66,32.31,13.61,32.17,32.68-.15,19.69-12.06,31.44-31.75,31.71-18.78.26-32.14-12.66-32.94-32.09Z"/>
  <path class="cls-2" d="M293.02,100.79c-1.68-18.59,17.41-33.13,36.19-30.6,15.32,2.07,30.39,14.07,27.68,36.3-2.05,16.81-13.83,27.17-33.03,27.08-17.42-.08-32.45-14.11-30.85-32.78Z"/>
  <path class="cls-2" d="M514.2,481.17c.09,16.99-11.57,31.83-31.72,31.74-19.11-.08-31.86-12.13-32.34-30.55-.52-19.8,12.84-33.23,32.13-33.28,18.55-.04,31.85,13.32,31.92,32.09Z"/>
  <path class="cls-2" d="M167.61,449.11c18.52.38,32.15,13.78,32.12,32.89-.02,17.1-11.47,30.25-32.11,30.99-17.59.63-32.37-14.17-32.5-31.47-.13-19.18,12.92-32.2,32.48-32.41Z"/>
</svg>